<?xml version="1.0" ?><!DOCTYPE svg  PUBLIC '-//W3C//DTD SVG 1.1//EN'  'http://www.w3.org/Graphics/SVG/1.1/DTD/svg11.dtd'><svg height="512px" style="enable-background:new 0 0 512 512;" version="1.1" viewBox="0 0 512 512" width="512px" xml:space="preserve" xmlns="http://www.w3.org/2000/svg" xmlns:xlink="http://www.w3.org/1999/xlink"><g id="_x35_02_x2C__expariment_x2C__physics_x2C__education_x2C__exparimant_physics"><g><path d="M264.51,194.64c0.98,5.31,1.49,10.77,1.49,16.36c0,49.71-40.29,90-90,90s-90-40.29-90-90    s40.29-90,90-90C220.12,121,256.83,152.74,264.51,194.64z" style="fill:#A28671;"/><path d="M94.5,221.75c0-49.71,40.29-90,90-90c26.132,0,49.661,11.137,66.102,28.922    C234.43,136.742,207.059,121,176,121c-49.71,0-90,40.29-90,90c0,23.526,9.028,44.938,23.804,60.973    C100.141,257.628,94.5,240.349,94.5,221.75z" style="fill:#8E725D;"/><path d="M396,361c27.61,0,50,22.39,50,50s-22.39,50-50,50s-50-22.39-50-50S368.39,361,396,361z" style="fill:#A28671;"/><path d="M352.001,422.75c0-27.61,22.39-50,50-50c17.065,0,32.129,8.56,41.151,21.613    C436.295,374.932,417.776,361,396,361c-27.61,0-50,22.39-50,50c0,10.545,3.273,20.321,8.848,28.387    C353.011,434.181,352.001,428.584,352.001,422.75z" style="fill:#8E725D;"/><path d="M176,161c27.61,0,50,22.39,50,50s-22.39,50-50,50s-50-22.39-50-50S148.39,161,176,161z" style="fill:#57606F;"/><path d="M133.25,223.75c0-27.61,22.39-50,50-50c15.997,0,30.231,7.525,39.384,19.218    C215.396,174.27,197.25,161,176,161c-27.61,0-50,22.39-50,50c0,11.613,3.972,22.293,10.616,30.782    C134.45,236.186,133.25,230.109,133.25,223.75z" style="fill:#414A56;"/><polygon points="256,451 256,491 96,491 96,411 176,411 256,411   " style="fill:#73665C;"/><polygon points="105.75,421.5 185.75,421.5 256,421.5 256,411 176,411 96,411 96,491 105.75,491   " style="fill:#60534A;"/><rect height="20" width="20" x="356" y="291"/><rect height="20" width="20" x="356" y="261"/><rect height="20" width="20" x="356" y="231"/><rect height="20" width="20" x="356" y="201"/><rect height="20" width="20" x="356" y="171"/><path d="M176,306c-52.383,0-95-42.617-95-95c0-52.383,42.617-95,95-95c45.88,0,85.172,32.694,93.428,77.739    C270.471,199.386,271,205.196,271,211C271,263.383,228.383,306,176,306z M176,126c-46.869,0-85,38.131-85,85s38.131,85,85,85    s85-38.131,85-85c0-5.197-0.474-10.396-1.407-15.452C252.206,155.247,217.051,126,176,126z"/><path d="M176,266c-30.327,0-55-24.673-55-55s24.673-55,55-55s55,24.673,55,55S206.327,266,176,266z M176,166    c-24.813,0-45,20.187-45,45s20.187,45,45,45s45-20.187,45-45S200.813,166,176,166z"/><path d="M396,466c-30.327,0-55-24.673-55-55s24.673-55,55-55s55,24.673,55,55S426.327,466,396,466z M396,366    c-24.813,0-45,20.187-45,45s20.187,45,45,45s45-20.187,45-45S420.813,366,396,366z"/><path d="M396,436c-2.762,0-5-2.238-5-5s2.238-5,5-5c8.271,0,15-6.729,15-15s-6.729-15-15-15c-2.762,0-5-2.238-5-5s2.238-5,5-5    c13.785,0,25,11.215,25,25S409.785,436,396,436z"/><path d="M347,426.001c-2.049,0-3.971-1.269-4.704-3.308l-90-250c-0.935-2.598,0.413-5.462,3.011-6.398    c2.598-0.935,5.463,0.413,6.397,3.011l90,250c0.936,2.598-0.412,5.463-3.011,6.397C348.135,425.906,347.563,426.001,347,426.001z"/><path d="M96,116c-2.761,0-5-2.239-5-5V21c0-2.761,2.239-5,5-5s5,2.239,5,5v90C101,113.761,98.761,116,96,116z"/><path d="M436,326c-2.762,0-5-2.238-5-5V46H66c-2.761,0-5-2.239-5-5s2.239-5,5-5h370c2.762,0,5,2.239,5,5v280    C441,323.762,438.762,326,436,326z"/><path d="M176,416c-2.761,0-5-2.238-5-5V261c0-2.762,2.239-5,5-5s5,2.238,5,5v150C181,413.762,178.761,416,176,416z"/><path d="M256,496H96c-2.761,0-5-2.238-5-5v-80c0-2.762,2.239-5,5-5h160c2.762,0,5,2.238,5,5v80C261,493.762,258.762,496,256,496z     M101,486h150v-70H101V486z"/><path d="M256,456H136c-2.761,0-5-2.238-5-5s2.239-5,5-5h120c2.762,0,5,2.238,5,5S258.762,456,256,456z"/></g></g><g id="Layer_1"/></svg>
